<svg xmlns="http://www.w3.org/2000/svg" fill="url(#a)" stroke="url(#a)" stroke-linecap="round" stroke-linejoin="round" stroke-width="1.5" viewBox="0 0 24 24"><defs><linearGradient id="a" x1="-2.778%" x2="100%" y1="32%" y2="67.556%"><stop class="transition-all duration-1000 ease-out" offset="0%" stop-color="#5656FD"/><stop class="transition-all duration-1000 ease-out" offset="100%" stop-color="#FF5D59"/></linearGradient></defs><path fill="none" stroke="none" d="M0 0h24v24H0z"/><path d="M15 12h.01M12 12h.01M9 12h.01M6 19a2 2 0 0 1-2-2v-4l-1-1 1-1V7a2 2 0 0 1 2-2M18 19a2 2 0 0 0 2-2v-4l1-1-1-1V7a2 2 0 0 0-2-2"/></svg>