<?xml version="1.0" encoding="utf-8"?>
<svg viewBox="0 49.4 512 399.42" xmlns="http://www.w3.org/2000/svg">
  <defs>
    <linearGradient gradientUnits="userSpaceOnUse" x1="256" y1="99.727" x2="256" y2="355.727" id="gradient-0">
      <stop offset="0" style="stop-color: rgb(52.941% 34.902% 100%)"/>
      <stop offset="1" style="stop-color: rgb(28.847% 15.067% 77.116%)"/>
    </linearGradient>
    <linearGradient gradientUnits="userSpaceOnUse" x1="453.818" y1="64.724" x2="453.818" y2="251" id="gradient-1">
      <stop offset="0" style="stop-color: rgb(52.941% 34.902% 100%)"/>
      <stop offset="1" style="stop-color: rgb(28.847% 15.067% 77.116%)"/>
    </linearGradient>
    <linearGradient gradientUnits="userSpaceOnUse" x1="453.818" y1="163.727" x2="453.818" y2="448.818" id="gradient-2">
      <stop offset="0" style="stop-color: rgb(52.941% 34.902% 100%)"/>
      <stop offset="1" style="stop-color: rgb(28.847% 15.067% 77.116%)"/>
    </linearGradient>
    <linearGradient gradientUnits="userSpaceOnUse" x1="58.182" y1="64.724" x2="58.182" y2="251" id="gradient-3">
      <stop offset="0" style="stop-color: rgb(52.941% 34.902% 100%)"/>
      <stop offset="1" style="stop-color: rgb(28.847% 15.067% 77.116%)"/>
    </linearGradient>
    <linearGradient gradientUnits="userSpaceOnUse" x1="58.182" y1="163.727" x2="58.182" y2="448.82" id="gradient-4">
      <stop offset="0" style="stop-color: rgb(52.941% 34.902% 100%)"/>
      <stop offset="1" style="stop-color: rgb(28.847% 15.067% 77.116%)"/>
    </linearGradient>
  </defs>
  <g fill="none" fill-rule="evenodd">
    <g fill-rule="nonzero">
      <path d="M34.91 448.818h81.454V251L0 163.727V413.91c0 19.287 15.622 34.91 34.91 34.91z" style="fill: url('#gradient-4');"/>
      <path d="M395.636 448.818h81.455c19.287 0 34.909-15.622 34.909-34.909V163.727L395.636 251z" style="fill: url('#gradient-2');"/>
      <path d="M395.636 99.727V251L512 163.727v-46.545c0-43.142-49.25-67.782-83.782-41.891z" style="fill: url('#gradient-1');"/>
    </g>
    <path d="M116.364 251V99.727L256 204.455 395.636 99.727V251L256 355.727z" style="fill: url('#gradient-0');"/>
    <path fill-rule="nonzero" d="M0 117.182v46.545L116.364 251V99.727L83.782 75.291C49.25 49.4 0 74.04 0 117.18z" style="fill: url('#gradient-3');"/>
  </g>
</svg>