<?xml version="1.0" encoding="utf-8"?>
<svg viewBox="0 49.4 512 399.42" xmlns="http://www.w3.org/2000/svg">
  <g fill="none" fill-rule="evenodd">
    <g fill-rule="nonzero">
      <path d="M34.91 448.818h81.454V251L0 163.727V413.91c0 19.287 15.622 34.91 34.91 34.91z" style="fill: rgba(86, 86, 253, 0.5);"/>
      <path d="M395.636 448.818h81.455c19.287 0 34.909-15.622 34.909-34.909V163.727L395.636 251z" style="fill: rgba(86, 86, 253, 0.5);"/>
      <path d="M395.636 99.727V251L512 163.727v-46.545c0-43.142-49.25-67.782-83.782-41.891z" style="fill: rgba(86, 86, 253, 0.2);"/>
    </g>
    <path d="M116.364 251V99.727L256 204.455 395.636 99.727V251L256 355.727z" style="fill: rgba(86, 86, 253, 0.5);"/>
    <path fill-rule="nonzero" d="M0 117.182v46.545L116.364 251V99.727L83.782 75.291C49.25 49.4 0 74.04 0 117.18z" style="fill: rgba(86, 86, 253, 0.204);"/>
  </g>
</svg>